<svg width="415" height="80" fill="none" xmlns="http://www.w3.org/2000/svg"><path d="M3.151 11.108a.98.98 0 0 0-.962.789L.02 22.809a.98.98 0 0 0 .962 1.17h4.13L1.64 41.846a94.36 94.36 0 0 0-.59 3.702 26.346 26.346 0 0 0-.215 3.262c-.007 4.114 1.095 7.112 3.305 8.992 2.21 1.881 5.64 2.821 10.288 2.821 2.027.02 4.05-.158 6.042-.529a26.341 26.341 0 0 0 2.117-.468l.16-.044.274-.076c.23-.065.458-.133.684-.204a1.877 1.877 0 0 0 1.266-1.44l2.122-10.683a.98.98 0 0 0-.962-1.17h-1.984a7.421 7.421 0 0 1-4.02-.843 3.247 3.247 0 0 1-1.276-2.938c.004-.402.046-.802.128-1.195.088-.47.167-.921.225-1.45l3.028-15.604h8.525a.98.98 0 0 0 .962-.789l2.17-10.912a.98.98 0 0 0-.962-1.17H24.73l1.929-9.942A.98.98 0 0 0 25.696 0H10.57a.98.98 0 0 0-.963.793l-2 10.315H3.15Z" fill="url(#a)"/><path fill-rule="evenodd" clip-rule="evenodd" d="M156.787 60.27c-5.956 0-10.651-1.704-14.083-5.113-3.433-3.408-5.153-8.14-5.159-14.193a34.261 34.261 0 0 1 1.961-11.549 31.334 31.334 0 0 1 5.512-9.746 26.417 26.417 0 0 1 8.651-6.788 25.032 25.032 0 0 1 11.259-2.508c5.885 0 10.546 1.688 13.986 5.064 3.439 3.377 5.162 8.124 5.168 14.243a34.467 34.467 0 0 1-1.961 11.548 31.183 31.183 0 0 1-5.561 9.737 27.328 27.328 0 0 1-8.612 6.788 24.472 24.472 0 0 1-11.161 2.518Zm1.148-9.344a10.096 10.096 0 0 0 5.884-1.852 16.724 16.724 0 0 0 4.542-4.848 24.41 24.41 0 0 0 2.942-6.788c.661-2.503.991-5.082.981-7.67 0-3.291-.746-5.79-2.207-7.494a8.042 8.042 0 0 0-6.444-2.556c-2.1-.016-4.154.613-5.884 1.802a16.045 16.045 0 0 0-4.551 4.849 26.1 26.1 0 0 0-2.942 6.857 28.01 28.01 0 0 0-1.059 7.581c0 3.265.735 5.776 2.206 7.533 1.461 1.714 3.648 2.586 6.532 2.586Z" fill="url(#b)"/><path d="M35.83 79.999a19.01 19.01 0 0 1-4.473-.49 18.117 18.117 0 0 1-2.19-.632.944.944 0 0 1-.596-1.08l1.993-10.095a.98.98 0 0 1 .962-.79h2.136c1.069.009 2.136-.08 3.188-.265a7.508 7.508 0 0 0 2.657-1.067 10.83 10.83 0 0 0 2.52-2.39 30.197 30.197 0 0 0 2.786-4.33l1.52-2.556-8.712-44.027a.98.98 0 0 1 .962-1.17h14.07c.488 0 .902.358.972.84l4.027 27.724 14.184-28.016a.981.981 0 0 1 .875-.537h13.905a.98.98 0 0 1 .85 1.467L58.201 63.474a70.977 70.977 0 0 1-5.316 7.963 24.925 24.925 0 0 1-5.227 5.133 17.964 17.964 0 0 1-5.532 2.655 23.823 23.823 0 0 1-6.296.774Z" fill="url(#c)"/><path fill-rule="evenodd" clip-rule="evenodd" d="M78.996 77.44a.98.98 0 0 0 .962 1.168h11.663a.98.98 0 0 0 .963-.793l4.504-23.137a15.197 15.197 0 0 0 .707 1.018c2.373 3.115 5.816 4.673 10.327 4.673a21.194 21.194 0 0 0 10.386-2.577 26.34 26.34 0 0 0 8.151-7.072 33.903 33.903 0 0 0 5.345-10.226 38.737 38.737 0 0 0 1.863-12.058 23.88 23.88 0 0 0-1.912-9.913 14.702 14.702 0 0 0-5.625-6.642 14.728 14.728 0 0 0-8.4-2.301 17.253 17.253 0 0 0-8.916 2.537 25.934 25.934 0 0 0-4.274 3.253l.605-3.105a.98.98 0 0 0-.963-1.167H92.757a.98.98 0 0 0-.963.792L78.996 77.44Zm28.606-54.872a8.145 8.145 0 0 1 5.335-1.959h.02a6.013 6.013 0 0 1 5.051 2.263c1.167 1.509 1.736 3.624 1.736 6.406a28.714 28.714 0 0 1-.932 7.386 25.222 25.222 0 0 1-2.628 6.445 14.848 14.848 0 0 1-4.002 4.584 8.185 8.185 0 0 1-4.904 1.685 6.193 6.193 0 0 1-5.158-2.223c-1.19-1.476-1.785-3.611-1.785-6.406a28.65 28.65 0 0 1 .843-6.622 27.704 27.704 0 0 1 2.501-6.583c.969-1.899 2.302-3.59 3.923-4.976Z" fill="url(#d)"/><path d="M194.06 11.813a.98.98 0 0 1 .963-.793h7.633a.98.98 0 0 1 .964 1.165l-.78 4.03a21.19 21.19 0 0 1 4.967-4.088 17.74 17.74 0 0 1 8.955-2.341 14.036 14.036 0 0 1 7.11 1.665 10.777 10.777 0 0 1 4.364 4.721c.227.495.428 1 .604 1.512a21.613 21.613 0 0 1 6.674-5.567 20.057 20.057 0 0 1 9.445-2.302c4.204 0 7.473 1.244 9.807 3.732 2.334 2.488 3.489 5.86 3.462 10.119v.43a19.91 19.91 0 0 1-.088 1.999 21.18 21.18 0 0 1-.363 2.605l-5.788 29.516a.98.98 0 0 1-.963.791h-7.63a.98.98 0 0 1-.963-1.169l5.713-28.961a23.33 23.33 0 0 0 .265-1.96c.058-.636.088-1.263.088-1.802a8.005 8.005 0 0 0-1.707-5.397 6.429 6.429 0 0 0-5.129-1.96 9.82 9.82 0 0 0-4.639 1.127 15.757 15.757 0 0 0-3.874 2.939 15.368 15.368 0 0 0-2.874 4.134 20.986 20.986 0 0 0-1.082 2.681l-.006.032-5.788 29.516a.98.98 0 0 1-.963.79h-7.633a.98.98 0 0 1-.962-1.167l5.656-28.865c.127-.656.226-1.322.314-1.959.09-.596.136-1.199.137-1.802a8.005 8.005 0 0 0-1.707-5.397 6.436 6.436 0 0 0-5.129-1.96c-1.631-.01-3.24.377-4.688 1.127a14.537 14.537 0 0 0-3.864 2.939 15.999 15.999 0 0 0-2.845 4.133 21.43 21.43 0 0 0-1.585 4.197l-5.401 27.931a.98.98 0 0 1-.963.794h-7.643a.98.98 0 0 1-.963-1.165l8.899-45.97Z" fill="url(#e)"/><path fill-rule="evenodd" clip-rule="evenodd" d="M270.967 36.439h34.62a.981.981 0 0 0 .965-.802l.214-1.157c.177-1.078.324-2.155.451-3.243.114-1.014.173-2.035.177-3.056-.026-5.53-1.576-9.949-4.649-13.253-3.073-3.304-7.65-4.956-13.731-4.956a23.207 23.207 0 0 0-10.788 2.527 25.989 25.989 0 0 0-8.386 6.857 32.444 32.444 0 0 0-5.414 9.961 36.215 36.215 0 0 0-1.893 11.755c-.006 6.066 1.661 10.752 5.002 14.056 3.342 3.304 7.778 4.957 13.309 4.957 3.4.026 6.777-.552 9.975-1.705a23.414 23.414 0 0 0 8.385-5.407 29.823 29.823 0 0 0 5.692-8.224c.295-.631-.178-1.336-.874-1.336h-6.089a1.02 1.02 0 0 0-.921.607 15.599 15.599 0 0 1-5.968 6.788 17.441 17.441 0 0 1-9.111 2.43c-3.678 0-6.453-1.078-8.346-3.243-1.896-2.142-2.844-5.407-2.844-9.795a30.47 30.47 0 0 1 .224-3.761Zm28.326-5.963c.034-.599.049-1.188.049-1.756 0-3.85-.903-6.788-2.707-8.816-1.805-2.027-4.482-3.066-8.033-3.066a14.402 14.402 0 0 0-7.444 1.96 18.115 18.115 0 0 0-5.639 5.27 25.305 25.305 0 0 0-3.219 6.422l26.993-.014Z" fill="url(#f)"/><path d="M313.92 11.864a.981.981 0 0 1 .964-.795h6.384L323.256.822a.98.98 0 0 1 .963-.793h3.887a.98.98 0 0 1 .963 1.166l-1.91 9.874h9.56a.98.98 0 0 1 .963 1.164l-.526 2.742a.981.981 0 0 1-.963.795h-9.944l-5.781 29.876a87.182 87.182 0 0 0-.354 2.33 5.121 5.121 0 0 0 1.531 5.634c1.085.9 2.929 1.352 5.531 1.352h.776c.616 0 1.079.559.963 1.163l-.492 2.576c-.062.325-.283.604-.602.696a4.967 4.967 0 0 1-1.125.188 25.73 25.73 0 0 1-1.089.063 35.67 35.67 0 0 1-1.363.025c-3.56 0-6.179-.676-7.847-2.037-1.667-1.362-2.491-3.605-2.491-6.74.006-.788.052-1.576.138-2.36.098-.496.186-1.013.278-1.552.064-.376.13-.763.202-1.162l5.831-30.052h-5.998a.98.98 0 0 1-.963-1.163l.526-2.743Z" fill="url(#g)"/><path fill-rule="evenodd" clip-rule="evenodd" d="M341.262 35.626h36.126a.98.98 0 0 0 .972-.847l.07-.515c.238-1.14.419-2.29.54-3.448a29.38 29.38 0 0 0 .186-3.262c-.006-5.374-1.461-9.619-4.364-12.734-2.903-3.115-7.17-4.672-12.799-4.672a21.593 21.593 0 0 0-10.582 2.635 26.575 26.575 0 0 0-8.22 7.072 33.293 33.293 0 0 0-5.315 10.109 37.603 37.603 0 0 0-1.864 11.754c.007 5.806 1.566 10.279 4.679 13.42 3.112 3.141 7.362 4.712 12.75 4.712 3.24.026 6.458-.542 9.494-1.675a22.176 22.176 0 0 0 7.993-5.349 31.76 31.76 0 0 0 5.521-8.046c.304-.633-.169-1.348-.871-1.348h-2.67c-.402 0-.762.246-.922.614a20.44 20.44 0 0 1-7.237 8.731 19.378 19.378 0 0 1-10.789 3.086c-4.296 0-7.564-1.254-9.808-3.762-2.242-2.507-3.363-6.122-3.363-10.843-.001-1.89.157-3.774.473-5.632Zm32.894-4 .057-.477c.115-1.07.174-2.146.177-3.223 0-4.414-1.089-7.8-3.266-10.157-2.177-2.358-5.355-3.536-9.533-3.536a16.486 16.486 0 0 0-8.494 2.262 21.248 21.248 0 0 0-6.581 6.122 30.607 30.607 0 0 0-4.227 8.709c-.078.254-.154.508-.227.764l32.031.009.063-.472Z" fill="url(#h)"/><path d="M391.694 11.93a.98.98 0 0 1 .962-.793h1.462a.979.979 0 0 1 .962 1.168l-1.767 9.015a34.609 34.609 0 0 1 1.173-1.827 23.296 23.296 0 0 1 7.365-6.906 17.29 17.29 0 0 1 8.7-2.36c1.77 0 3.106.2 4.003.602.35.157.501.55.428.926l-.241 1.25c-.118.608-.766.953-1.369.802a8.115 8.115 0 0 0-.909-.172 17.566 17.566 0 0 0-2.501-.176 16.17 16.17 0 0 0-6.865 1.45 18.27 18.27 0 0 0-5.502 3.918 22.66 22.66 0 0 0-3.923 5.505 24.293 24.293 0 0 0-1.984 5.273l-5.599 28.552a.982.982 0 0 1-.963.791h-1.367a.98.98 0 0 1-.963-1.166l8.898-45.852Z" fill="url(#i)"/><defs><linearGradient id="a" x1="207.5" y1="0" x2="207.5" y2="80" gradientUnits="userSpaceOnUse"><stop stop-color="#09F"/><stop offset="1" stop-color="#0CF"/></linearGradient><linearGradient id="b" x1="207.5" y1="0" x2="207.5" y2="80" gradientUnits="userSpaceOnUse"><stop stop-color="#09F"/><stop offset="1" stop-color="#0CF"/></linearGradient><linearGradient id="c" x1="207.5" y1="0" x2="207.5" y2="80" gradientUnits="userSpaceOnUse"><stop stop-color="#09F"/><stop offset="1" stop-color="#0CF"/></linearGradient><linearGradient id="d" x1="207.5" y1="0" x2="207.5" y2="80" gradientUnits="userSpaceOnUse"><stop stop-color="#09F"/><stop offset="1" stop-color="#0CF"/></linearGradient><linearGradient id="e" x1="207.5" y1="0" x2="207.5" y2="80" gradientUnits="userSpaceOnUse"><stop stop-color="#09F"/><stop offset="1" stop-color="#0CF"/></linearGradient><linearGradient id="f" x1="207.5" y1="0" x2="207.5" y2="80" gradientUnits="userSpaceOnUse"><stop stop-color="#09F"/><stop offset="1" stop-color="#0CF"/></linearGradient><linearGradient id="g" x1="207.5" y1="0" x2="207.5" y2="80" gradientUnits="userSpaceOnUse"><stop stop-color="#09F"/><stop offset="1" stop-color="#0CF"/></linearGradient><linearGradient id="h" x1="207.5" y1="0" x2="207.5" y2="80" gradientUnits="userSpaceOnUse"><stop stop-color="#09F"/><stop offset="1" stop-color="#0CF"/></linearGradient><linearGradient id="i" x1="207.5" y1="0" x2="207.5" y2="80" gradientUnits="userSpaceOnUse"><stop stop-color="#09F"/><stop offset="1" stop-color="#0CF"/></linearGradient></defs></svg>